<svg width="42" height="42" viewBox="0 0 42 42" fill="none" xmlns="http://www.w3.org/2000/svg">
<path d="M33.25 5.25H25.935C25.2 3.22 23.275 1.75 21 1.75C18.725 1.75 16.8 3.22 16.065 5.25H8.75C6.825 5.25 5.25 6.825 5.25 8.75V33.25C5.25 35.175 6.825 36.75 8.75 36.75H33.25C35.175 36.75 36.75 35.175 36.75 33.25V8.75C36.75 6.825 35.175 5.25 33.25 5.25ZM21 5.25C21.9625 5.25 22.75 6.0375 22.75 7C22.75 7.9625 21.9625 8.75 21 8.75C20.0375 8.75 19.25 7.9625 19.25 7C19.25 6.0375 20.0375 5.25 21 5.25ZM24.5 29.75H12.25V26.25H24.5V29.75ZM29.75 22.75H12.25V19.25H29.75V22.75ZM29.75 15.75H12.25V12.25H29.75V15.75Z" fill="#FAFAFA"/>
</svg>
